# xmcd
#
# Track frame offsets: 
#        150
#        16956
#        44606
#        57005
#        72764
#        107089
#        132828
#        147512
#        186476
#        207491
#        241351
#
# Disc length: 3916 seconds
#
# Revision: 0
# Processed by: cddbd v1.5.1PL0 Copyright (c) Steve Scherf et al.
# Submitted via: ExactAudioCopy v0.95a5
#
DISCID=a60f4a0b
DTITLE=Steve Arvey and West Side Heat - Live At Blues On Grand
DYEAR=2003
DGENRE=Blues
TTITLE0=Stranded
TTITLE1=Fine Line
TTITLE2=Mississippi
TTITLE3=Oh Lucky
TTITLE4=Reconsider Baby
TTITLE5=How Do You Spell Love
TTITLE6=Your So Fine
TTITLE7=Chicken Heads
TTITLE8=He Knows The Rules
TTITLE9=Shake Your Moneymaker
TTITLE10=Rollin' and Tumblin'
EXTD=
EXTT0=
EXTT1=
EXTT2=
EXTT3=
EXTT4=
EXTT5=
EXTT6=
EXTT7=
EXTT8=
EXTT9=
EXTT10=
PLAYORDER=
